<?xml version="1.0" encoding="iso-8859-1"?>
<!-- Uploaded to: SVG Repo, www.svgrepo.com, Generator: SVG Repo Mixer Tools -->
<svg height="800px" width="800px" version="1.1" id="Layer_1" xmlns="http://www.w3.org/2000/svg" xmlns:xlink="http://www.w3.org/1999/xlink" 
	 viewBox="0 0 512 512" xml:space="preserve">
<path style="fill:#5D9BEB;" d="M512,256.006C512,397.402,397.394,512.004,256.004,512C114.606,512.004,0,397.402,0,256.006
	C-0.007,114.61,114.606,0,256.004,0C397.394,0,512,114.614,512,256.006z"/>
<path style="fill:#4988DB;" d="M511.693,268.19c-0.302-0.303-108.075-108.091-108.586-108.585
	c-10.692-11.358-24.706-14.737-37.487-14.737H151.588c-44.407,0-60.229,38.459-60.229,74.45v1.76
	c-4.95,1.878-9.662,4.599-13.746,8.279c-10.949,9.876-10.949,20.73-10.949,30.303v56.989c0,13.587,6.377,26.483,16.083,35.871
	c0.497,0.518,0.997,1.013,1.513,1.513c0.497,0.521,155.693,155.71,156.211,156.21c0.442,0.462,0.889,0.902,1.345,1.346
	c4.7,0.256,9.424,0.41,14.188,0.41C393.309,512.004,505.331,403.922,511.693,268.19z"/>
<path style="fill:#F4F6F9;" d="M434.515,229.471c-4.03-3.789-8.797-6.569-13.875-8.394v-2.122c0-61.233-29.921-74.089-55.02-74.089
	H151.588c-44.407,0-60.228,38.459-60.228,74.45v1.761c-4.953,1.878-9.663,4.599-13.747,8.281
	c-10.949,9.876-10.949,20.729-10.949,30.303v56.989c0,26.42,23.892,50.481,50.131,50.481h283.627
	c24.768,0,44.914-22.646,44.914-50.481v-56.495C445.337,242.077,443.157,237.615,434.515,229.471z M365.62,161.332
	c16.532,0,38.495,5.968,38.55,57.441c-4.359,0.291-8.682,1.215-12.753,2.976c-12.629,5.458-20.17,16.934-20.17,30.705v25.87
	c0,1.812,0.145,3.653,0.289,5.419c0.025,0.33,0.057,0.695,0.08,1.069l-107.386,0.064V161.332H365.62z M151.588,161.332h96.179
	v123.554l-105.231,0.063c-0.643-0.502-1.785-3.148-1.785-6.624v-26.441c0-13.775-7.163-25.182-19.165-30.521
	c-4.326-1.92-9.002-2.844-13.747-3.024C107.995,200.441,112.77,161.332,151.588,161.332z M428.873,316.651
	c0,16.359-10.877,34.017-28.45,34.017H116.796c-16.994,0-33.667-16.85-33.667-34.017v-56.989c0-9.088,0.225-13.309,5.515-18.08
	c4.969-4.482,11.495-6.91,17.702-6.91c2.998,0,5.917,0.566,8.554,1.737c4.285,1.905,9.39,6.133,9.39,15.475v26.441
	c0,13.3,7.524,22.951,17.895,22.951h232.851c5.049,0,8.079-2.143,9.735-3.939c4.044-4.389,3.562-10.242,3.175-14.945
	c-0.112-1.327-0.234-2.705-0.234-4.068v-25.87c0-9.719,6.415-13.939,10.242-15.596c6.962-2.991,17.477-2.741,25.275,4.603
	c5.113,4.812,5.644,5.314,5.644,18.694v56.496H428.873z"/>
</svg>